<svg xmlns="http://www.w3.org/2000/svg" width="1024" height="500" viewBox="0 0 1024 500" role="img" aria-label="Au loup!">
  <rect width="1024" height="500" fill="#2C3E50"/>
  <!-- Iris on a circle, left side -->
  <g transform="translate(150 110) scale(2.6)">
    <circle cx="54" cy="54" r="54" fill="#243342"/>
    <path fill="#9FB1BD" d="M29,32 L48,46 L54,42 L60,46 L79,32 L74,59 C73,72 65,80 54,80 C43,80 35,72 34,59 Z"/>
    <path fill="#5D6D7E" d="M35,37 L46,47 L40,47 Z"/>
    <path fill="#5D6D7E" d="M73,37 L62,47 L68,47 Z"/>
    <path fill="#ECEFF1" d="M54,78 C44,71 43,62 49,60 C51,59 53,60 54,62 C55,60 57,59 59,60 C65,62 64,71 54,78 Z"/>
    <path fill="#2C3E50" d="M51,64 L57,64 L54,69 Z"/>
    <path fill="none" stroke="#2C3E50" stroke-width="2.6" stroke-linecap="round" d="M39,54 Q45,59 51,54"/>
    <path fill="none" stroke="#2C3E50" stroke-width="2.6" stroke-linecap="round" d="M57,54 Q63,59 69,54"/>
  </g>
  <text x="540" y="235" font-family="sans-serif" font-size="92" font-weight="700" fill="#ECEFF1">Au loup!</text>
  <text x="542" y="300" font-family="sans-serif" font-size="38" fill="#9FB1BD">Block spam calls by prefix</text>
  <text x="542" y="350" font-family="sans-serif" font-size="38" fill="#9FB1BD">Bloquez le démarchage</text>
</svg>
